<svg xmlns="http://www.w3.org/2000/svg" width="2070" height="721" viewBox="0 0 2070 721" role="img">
<defs><marker id="arrow" markerWidth="9" markerHeight="7" refX="8" refY="3.5" orient="auto"><polygon points="0 0, 9 3.5, 0 7" fill="#667085"/></marker></defs>
<rect width="100%" height="100%" fill="#FFFFFF"/>
<text x="55" y="38" font-family="Segoe UI, Microsoft YaHei, sans-serif" font-size="22" font-weight="700" fill="#17212B">人工智能经济学如何从算力与模型能力，经 token 化推理投入和真实采用，传导至劳动、企业、市场与宏观结果？</text>
<text x="55" y="66" font-family="Segoe UI, Microsoft YaHei, sans-serif" font-size="13" fill="#52606D">实线表示文献内关系或跨文献归纳，虚线表示综述提出的待检验联系；黄色是本轮语料的证据边界，并非全学界空白。研究方案另见独立报告。</text>
<path d="M 165.0 211.0 C 165.0 211.0, 165.0 245.0, 165.0 245.0" fill="none" stroke="#667085" stroke-width="1.7" marker-end="url(#arrow)"/>
<text x="165.0" y="223.0" text-anchor="middle" font-family="Segoe UI, Microsoft YaHei, sans-serif" font-size="11" fill="#475467">explains</text>
<path d="M 165.0 211.0 C 165.0 211.0, 165.0 375.0, 165.0 375.0" fill="none" stroke="#667085" stroke-width="1.7" marker-end="url(#arrow)"/>
<text x="165.0" y="288.0" text-anchor="middle" font-family="Segoe UI, Microsoft YaHei, sans-serif" font-size="11" fill="#475467">explains</text>
<path d="M 165.0 211.0 C 165.0 211.0, 165.0 505.0, 165.0 505.0" fill="none" stroke="#667085" stroke-width="1.7" marker-end="url(#arrow)"/>
<text x="165.0" y="353.0" text-anchor="middle" font-family="Segoe UI, Microsoft YaHei, sans-serif" font-size="11" fill="#475467">explains</text>
<path d="M 275.0 553.0 C 310.0 553.0, 310.0 228.0, 345.0 228.0" fill="none" stroke="#667085" stroke-width="1.7" stroke-dasharray="7 5" marker-end="url(#arrow)"/>
<text x="310.0" y="385.5" text-anchor="middle" font-family="Segoe UI, Microsoft YaHei, sans-serif" font-size="11" fill="#475467">extends</text>
<path d="M 455.0 276.0 C 455.0 276.0, 455.0 310.0, 455.0 310.0" fill="none" stroke="#667085" stroke-width="1.7" stroke-dasharray="7 5" marker-end="url(#arrow)"/>
<text x="455.0" y="288.0" text-anchor="middle" font-family="Segoe UI, Microsoft YaHei, sans-serif" font-size="11" fill="#475467">limited-by</text>
<path d="M 455.0 406.0 C 455.0 406.0, 455.0 440.0, 455.0 440.0" fill="none" stroke="#667085" stroke-width="1.7" marker-end="url(#arrow)"/>
<text x="455.0" y="418.0" text-anchor="middle" font-family="Segoe UI, Microsoft YaHei, sans-serif" font-size="11" fill="#475467">reveals-gap</text>
<path d="M 275.0 293.0 C 455.0 293.0, 455.0 163.0, 635.0 163.0" fill="none" stroke="#667085" stroke-width="1.7" marker-end="url(#arrow)"/>
<text x="455.0" y="223.0" text-anchor="middle" font-family="Segoe UI, Microsoft YaHei, sans-serif" font-size="11" fill="#475467">operationalizes</text>
<path d="M 275.0 423.0 C 455.0 423.0, 455.0 423.0, 635.0 423.0" fill="none" stroke="#667085" stroke-width="1.7" marker-end="url(#arrow)"/>
<text x="455.0" y="418.0" text-anchor="middle" font-family="Segoe UI, Microsoft YaHei, sans-serif" font-size="11" fill="#475467">explains</text>
<path d="M 745.0 211.0 C 745.0 211.0, 745.0 245.0, 745.0 245.0" fill="none" stroke="#667085" stroke-width="1.7" marker-end="url(#arrow)"/>
<text x="745.0" y="223.0" text-anchor="middle" font-family="Segoe UI, Microsoft YaHei, sans-serif" font-size="11" fill="#475467">supports</text>
<path d="M 745.0 341.0 C 745.0 341.0, 745.0 505.0, 745.0 505.0" fill="none" stroke="#667085" stroke-width="1.7" stroke-dasharray="7 5" marker-end="url(#arrow)"/>
<text x="745.0" y="418.0" text-anchor="middle" font-family="Segoe UI, Microsoft YaHei, sans-serif" font-size="11" fill="#475467">reveals-gap</text>
<path d="M 855.0 423.0 C 890.0 423.0, 890.0 163.0, 925.0 163.0" fill="none" stroke="#667085" stroke-width="1.7" marker-end="url(#arrow)"/>
<text x="890.0" y="288.0" text-anchor="middle" font-family="Segoe UI, Microsoft YaHei, sans-serif" font-size="11" fill="#475467">moderates</text>
<path d="M 855.0 163.0 C 890.0 163.0, 890.0 163.0, 925.0 163.0" fill="none" stroke="#667085" stroke-width="1.7" marker-end="url(#arrow)"/>
<text x="890.0" y="158.0" text-anchor="middle" font-family="Segoe UI, Microsoft YaHei, sans-serif" font-size="11" fill="#475467">supports</text>
<path d="M 1035.0 211.0 C 1035.0 211.0, 1035.0 245.0, 1035.0 245.0" fill="none" stroke="#667085" stroke-width="1.7" marker-end="url(#arrow)"/>
<text x="1035.0" y="223.0" text-anchor="middle" font-family="Segoe UI, Microsoft YaHei, sans-serif" font-size="11" fill="#475467">moderates</text>
<path d="M 1035.0 211.0 C 1035.0 211.0, 1035.0 375.0, 1035.0 375.0" fill="none" stroke="#667085" stroke-width="1.7" marker-end="url(#arrow)"/>
<text x="1035.0" y="288.0" text-anchor="middle" font-family="Segoe UI, Microsoft YaHei, sans-serif" font-size="11" fill="#475467">limited-by</text>
<path d="M 1035.0 471.0 C 1035.0 471.0, 1035.0 505.0, 1035.0 505.0" fill="none" stroke="#667085" stroke-width="1.7" stroke-dasharray="7 5" marker-end="url(#arrow)"/>
<text x="1035.0" y="483.0" text-anchor="middle" font-family="Segoe UI, Microsoft YaHei, sans-serif" font-size="11" fill="#475467">reveals-gap</text>
<path d="M 275.0 553.0 C 745.0 553.0, 745.0 293.0, 1215.0 293.0" fill="none" stroke="#667085" stroke-width="1.7" marker-end="url(#arrow)"/>
<text x="745.0" y="418.0" text-anchor="middle" font-family="Segoe UI, Microsoft YaHei, sans-serif" font-size="11" fill="#475467">explains</text>
<path d="M 1325.0 341.0 C 1325.0 341.0, 1325.0 375.0, 1325.0 375.0" fill="none" stroke="#667085" stroke-width="1.7" stroke-dasharray="7 5" marker-end="url(#arrow)"/>
<text x="1325.0" y="353.0" text-anchor="middle" font-family="Segoe UI, Microsoft YaHei, sans-serif" font-size="11" fill="#475467">reveals-gap</text>
<path d="M 275.0 423.0 C 890.0 423.0, 890.0 228.0, 1505.0 228.0" fill="none" stroke="#667085" stroke-width="1.7" marker-end="url(#arrow)"/>
<text x="890.0" y="320.5" text-anchor="middle" font-family="Segoe UI, Microsoft YaHei, sans-serif" font-size="11" fill="#475467">explains</text>
<path d="M 1615.0 276.0 C 1615.0 276.0, 1615.0 310.0, 1615.0 310.0" fill="none" stroke="#667085" stroke-width="1.7" marker-end="url(#arrow)"/>
<text x="1615.0" y="288.0" text-anchor="middle" font-family="Segoe UI, Microsoft YaHei, sans-serif" font-size="11" fill="#475467">limited-by</text>
<path d="M 1145.0 423.0 C 1325.0 423.0, 1325.0 488.0, 1505.0 488.0" fill="none" stroke="#667085" stroke-width="1.7" marker-end="url(#arrow)"/>
<text x="1325.0" y="450.5" text-anchor="middle" font-family="Segoe UI, Microsoft YaHei, sans-serif" font-size="11" fill="#475467">supports</text>
<path d="M 275.0 293.0 C 890.0 293.0, 890.0 488.0, 1505.0 488.0" fill="none" stroke="#667085" stroke-width="1.7" marker-end="url(#arrow)"/>
<text x="890.0" y="385.5" text-anchor="middle" font-family="Segoe UI, Microsoft YaHei, sans-serif" font-size="11" fill="#475467">explains</text>
<path d="M 275.0 553.0 C 1035.0 553.0, 1035.0 163.0, 1795.0 163.0" fill="none" stroke="#667085" stroke-width="1.7" marker-end="url(#arrow)"/>
<text x="1035.0" y="353.0" text-anchor="middle" font-family="Segoe UI, Microsoft YaHei, sans-serif" font-size="11" fill="#475467">applies-to</text>
<path d="M 1905.0 211.0 C 1905.0 211.0, 1905.0 245.0, 1905.0 245.0" fill="none" stroke="#667085" stroke-width="1.7" marker-end="url(#arrow)"/>
<text x="1905.0" y="223.0" text-anchor="middle" font-family="Segoe UI, Microsoft YaHei, sans-serif" font-size="11" fill="#475467">limited-by</text>
<path d="M 1905.0 341.0 C 1905.0 341.0, 1905.0 375.0, 1905.0 375.0" fill="none" stroke="#667085" stroke-width="1.7" stroke-dasharray="7 5" marker-end="url(#arrow)"/>
<text x="1905.0" y="353.0" text-anchor="middle" font-family="Segoe UI, Microsoft YaHei, sans-serif" font-size="11" fill="#475467">reveals-gap</text>
<path d="M 855.0 423.0 C 1325.0 423.0, 1325.0 553.0, 1795.0 553.0" fill="none" stroke="#667085" stroke-width="1.7" stroke-dasharray="7 5" marker-end="url(#arrow)"/>
<text x="1325.0" y="483.0" text-anchor="middle" font-family="Segoe UI, Microsoft YaHei, sans-serif" font-size="11" fill="#475467">applies-to</text>
<rect x="55" y="115" width="220" height="96" rx="12" fill="#E8F3EC" stroke="#347A52" stroke-width="1.8"/>
<text x="67" y="134" font-family="Segoe UI, Microsoft YaHei, sans-serif" font-size="10" font-weight="700" fill="#347A52">RESEARCH-QUESTION · RQ</text>
<text x="67" y="158" font-family="Segoe UI, Microsoft YaHei, sans-serif" font-size="13" fill="#17212B">AI 与 token</text>
<text x="67" y="174" font-family="Segoe UI, Microsoft YaHei, sans-serif" font-size="13" fill="#17212B">化推理如何产生经济后果？</text>
<rect x="55" y="245" width="220" height="96" rx="12" fill="#E8F3EC" stroke="#347A52" stroke-width="1.8"/>
<text x="67" y="264" font-family="Segoe UI, Microsoft YaHei, sans-serif" font-size="10" font-weight="700" fill="#347A52">THEORY · T-TASK</text>
<text x="67" y="288" font-family="Segoe UI, Microsoft YaHei, sans-serif" font-size="13" fill="#17212B">[成熟理论]</text>
<text x="67" y="304" font-family="Segoe UI, Microsoft YaHei, sans-serif" font-size="13" fill="#17212B">任务替代、增强与新任务</text>
<rect x="55" y="375" width="220" height="96" rx="12" fill="#E8F3EC" stroke="#347A52" stroke-width="1.8"/>
<text x="67" y="394" font-family="Segoe UI, Microsoft YaHei, sans-serif" font-size="10" font-weight="700" fill="#347A52">THEORY · T-GPT</text>
<text x="67" y="418" font-family="Segoe UI, Microsoft YaHei, sans-serif" font-size="13" fill="#17212B">[成熟理论] GPT</text>
<text x="67" y="434" font-family="Segoe UI, Microsoft YaHei, sans-serif" font-size="13" fill="#17212B">与无形互补资产</text>
<rect x="55" y="505" width="220" height="96" rx="12" fill="#EAE8FA" stroke="#6557B2" stroke-width="1.8"/>
<text x="67" y="524" font-family="Segoe UI, Microsoft YaHei, sans-serif" font-size="10" font-weight="700" fill="#6557B2">THEORY · T-STACK</text>
<text x="67" y="548" font-family="Segoe UI, Microsoft YaHei, sans-serif" font-size="13" fill="#17212B">[框架延伸] 算力—模型—API</text>
<text x="67" y="564" font-family="Segoe UI, Microsoft YaHei, sans-serif" font-size="13" fill="#17212B">产业层级</text>
<rect x="345" y="180.0" width="220" height="96" rx="12" fill="#FCE9E7" stroke="#B84A3A" stroke-width="1.8"/>
<text x="357" y="199.0" font-family="Segoe UI, Microsoft YaHei, sans-serif" font-size="10" font-weight="700" fill="#B84A3A">CONCEPT · C-TOKEN</text>
<text x="357" y="223.0" font-family="Segoe UI, Microsoft YaHei, sans-serif" font-size="13" fill="#17212B">Token是模型特定单位，并非同</text>
<text x="357" y="239.0" font-family="Segoe UI, Microsoft YaHei, sans-serif" font-size="13" fill="#17212B">质产出</text>
<rect x="345" y="310.0" width="220" height="96" rx="12" fill="#EAE8FA" stroke="#6557B2" stroke-width="1.8"/>
<text x="357" y="329.0" font-family="Segoe UI, Microsoft YaHei, sans-serif" font-size="10" font-weight="700" fill="#6557B2">CONCEPT · C-GCOST</text>
<text x="357" y="353.0" font-family="Segoe UI, Microsoft YaHei, sans-serif" font-size="13" fill="#17212B">[综述测量建议]</text>
<text x="357" y="369.0" font-family="Segoe UI, Microsoft YaHei, sans-serif" font-size="13" fill="#17212B">达标任务的广义成本</text>
<rect x="345" y="440.0" width="220" height="96" rx="12" fill="#FFF4D6" stroke="#B98216" stroke-width="1.8"/>
<text x="357" y="459.0" font-family="Segoe UI, Microsoft YaHei, sans-serif" font-size="10" font-weight="700" fill="#B98216">GAP · G-PRICE</text>
<text x="357" y="483.0" font-family="Segoe UI, Microsoft YaHei, sans-serif" font-size="13" fill="#17212B">待补证：token</text>
<text x="357" y="499.0" font-family="Segoe UI, Microsoft YaHei, sans-serif" font-size="13" fill="#17212B">价格到达标任务成本的可识别桥梁</text>
<rect x="635" y="115" width="220" height="96" rx="12" fill="#E8F3EC" stroke="#347A52" stroke-width="1.8"/>
<text x="647" y="134" font-family="Segoe UI, Microsoft YaHei, sans-serif" font-size="10" font-weight="700" fill="#347A52">CONCEPT · C-CHAIN</text>
<text x="647" y="158" font-family="Segoe UI, Microsoft YaHei, sans-serif" font-size="13" fill="#17212B">能力 → 暴露 → 采用 →</text>
<text x="647" y="174" font-family="Segoe UI, Microsoft YaHei, sans-serif" font-size="13" fill="#17212B">真实使用</text>
<rect x="635" y="245" width="220" height="96" rx="12" fill="#E8F3EC" stroke="#347A52" stroke-width="1.8"/>
<text x="647" y="264" font-family="Segoe UI, Microsoft YaHei, sans-serif" font-size="10" font-weight="700" fill="#347A52">FINDING · F-ADOPTION</text>
<text x="647" y="288" font-family="Segoe UI, Microsoft YaHei, sans-serif" font-size="13" fill="#17212B">[描述证据] 生成式 AI</text>
<text x="647" y="304" font-family="Segoe UI, Microsoft YaHei, sans-serif" font-size="13" fill="#17212B">采用迅速但强度分化</text>
<rect x="635" y="375" width="220" height="96" rx="12" fill="#E8F3EC" stroke="#347A52" stroke-width="1.8"/>
<text x="647" y="394" font-family="Segoe UI, Microsoft YaHei, sans-serif" font-size="10" font-weight="700" fill="#347A52">FINDING · F-ORGCOMP</text>
<text x="647" y="418" font-family="Segoe UI, Microsoft YaHei, sans-serif" font-size="13" fill="#17212B">[观察证据]</text>
<text x="647" y="434" font-family="Segoe UI, Microsoft YaHei, sans-serif" font-size="13" fill="#17212B">组织支持与使用深度相关</text>
<rect x="635" y="505" width="220" height="96" rx="12" fill="#FFF4D6" stroke="#B98216" stroke-width="1.8"/>
<text x="647" y="524" font-family="Segoe UI, Microsoft YaHei, sans-serif" font-size="10" font-weight="700" fill="#B98216">GAP · G-USE</text>
<text x="647" y="548" font-family="Segoe UI, Microsoft YaHei, sans-serif" font-size="13" fill="#17212B">待补证：暴露和许可证不能替代任务</text>
<text x="647" y="564" font-family="Segoe UI, Microsoft YaHei, sans-serif" font-size="13" fill="#17212B">级真实使用</text>
<rect x="925" y="115" width="220" height="96" rx="12" fill="#E8F3EC" stroke="#347A52" stroke-width="1.8"/>
<text x="937" y="134" font-family="Segoe UI, Microsoft YaHei, sans-serif" font-size="10" font-weight="700" fill="#347A52">FINDING · F-PROD</text>
<text x="937" y="158" font-family="Segoe UI, Microsoft YaHei, sans-serif" font-size="13" fill="#17212B">[现场准实验]</text>
<text x="937" y="174" font-family="Segoe UI, Microsoft YaHei, sans-serif" font-size="13" fill="#17212B">客服流程短期效率提高</text>
<rect x="925" y="245" width="220" height="96" rx="12" fill="#E8F3EC" stroke="#347A52" stroke-width="1.8"/>
<text x="937" y="264" font-family="Segoe UI, Microsoft YaHei, sans-serif" font-size="10" font-weight="700" fill="#347A52">FINDING · F-HET</text>
<text x="937" y="288" font-family="Segoe UI, Microsoft YaHei, sans-serif" font-size="13" fill="#17212B">[现场准实验]</text>
<text x="937" y="304" font-family="Segoe UI, Microsoft YaHei, sans-serif" font-size="13" fill="#17212B">收益因基线技能和任务而异</text>
<rect x="925" y="375" width="220" height="96" rx="12" fill="#E8F3EC" stroke="#347A52" stroke-width="1.8"/>
<text x="937" y="394" font-family="Segoe UI, Microsoft YaHei, sans-serif" font-size="10" font-weight="700" fill="#347A52">FINDING · F-REORG</text>
<text x="937" y="418" font-family="Segoe UI, Microsoft YaHei, sans-serif" font-size="13" fill="#17212B">[DiD]</text>
<text x="937" y="434" font-family="Segoe UI, Microsoft YaHei, sans-serif" font-size="13" fill="#17212B">任务重组与短期工资工时稳定并存</text>
<rect x="925" y="505" width="220" height="96" rx="12" fill="#FFF4D6" stroke="#B98216" stroke-width="1.8"/>
<text x="937" y="524" font-family="Segoe UI, Microsoft YaHei, sans-serif" font-size="10" font-weight="700" fill="#B98216">GAP · G-FIRM</text>
<text x="937" y="548" font-family="Segoe UI, Microsoft YaHei, sans-serif" font-size="13" fill="#17212B">待补证：企业采用的长期因果回报与</text>
<text x="937" y="564" font-family="Segoe UI, Microsoft YaHei, sans-serif" font-size="13" fill="#17212B">组织机制</text>
<rect x="1215" y="245.0" width="220" height="96" rx="12" fill="#E8F3EC" stroke="#347A52" stroke-width="1.8"/>
<text x="1227" y="264.0" font-family="Segoe UI, Microsoft YaHei, sans-serif" font-size="10" font-weight="700" fill="#347A52">THEORY · T-IO</text>
<text x="1227" y="288.0" font-family="Segoe UI, Microsoft YaHei, sans-serif" font-size="13" fill="#17212B">[成熟理论] 规模经济、差异化、</text>
<text x="1227" y="304.0" font-family="Segoe UI, Microsoft YaHei, sans-serif" font-size="13" fill="#17212B">锁定与纵向一体化</text>
<rect x="1215" y="375.0" width="220" height="96" rx="12" fill="#FFF4D6" stroke="#B98216" stroke-width="1.8"/>
<text x="1227" y="394.0" font-family="Segoe UI, Microsoft YaHei, sans-serif" font-size="10" font-weight="700" fill="#B98216">GAP · G-MARKET</text>
<text x="1227" y="418.0" font-family="Segoe UI, Microsoft YaHei, sans-serif" font-size="13" fill="#17212B">待补证：价格、质量、需求与集中度</text>
<rect x="1505" y="180.0" width="220" height="96" rx="12" fill="#E8F3EC" stroke="#347A52" stroke-width="1.8"/>
<text x="1517" y="199.0" font-family="Segoe UI, Microsoft YaHei, sans-serif" font-size="10" font-weight="700" fill="#347A52">FINDING · F-JCURVE</text>
<text x="1517" y="223.0" font-family="Segoe UI, Microsoft YaHei, sans-serif" font-size="13" fill="#17212B">[理论+测量]</text>
<text x="1517" y="239.0" font-family="Segoe UI, Microsoft YaHei, sans-serif" font-size="13" fill="#17212B">互补投资形成生产率 J 曲线</text>
<rect x="1505" y="310.0" width="220" height="96" rx="12" fill="#FCE9E7" stroke="#B84A3A" stroke-width="1.8"/>
<text x="1517" y="329.0" font-family="Segoe UI, Microsoft YaHei, sans-serif" font-size="10" font-weight="700" fill="#B84A3A">DEBATE · D-MACRO</text>
<text x="1517" y="353.0" font-family="Segoe UI, Microsoft YaHei, sans-serif" font-size="13" fill="#17212B">[校准]</text>
<text x="1517" y="369.0" font-family="Segoe UI, Microsoft YaHei, sans-serif" font-size="13" fill="#17212B">十年宏观增益可能温和且假设敏感</text>
<rect x="1505" y="440.0" width="220" height="96" rx="12" fill="#FCE9E7" stroke="#B84A3A" stroke-width="1.8"/>
<text x="1517" y="459.0" font-family="Segoe UI, Microsoft YaHei, sans-serif" font-size="10" font-weight="700" fill="#B84A3A">DEBATE · D-DISTRIB</text>
<text x="1517" y="483.0" font-family="Segoe UI, Microsoft YaHei, sans-serif" font-size="13" fill="#17212B">[理论/校准]</text>
<text x="1517" y="499.0" font-family="Segoe UI, Microsoft YaHei, sans-serif" font-size="13" fill="#17212B">产出增加不等于劳动者普遍受益</text>
<rect x="1795" y="115" width="220" height="96" rx="12" fill="#E8F3EC" stroke="#347A52" stroke-width="1.8"/>
<text x="1807" y="134" font-family="Segoe UI, Microsoft YaHei, sans-serif" font-size="10" font-weight="700" fill="#347A52">FINDING · F-GVC</text>
<text x="1807" y="158" font-family="Segoe UI, Microsoft YaHei, sans-serif" font-size="13" fill="#17212B">[企业面板]</text>
<text x="1807" y="174" font-family="Segoe UI, Microsoft YaHei, sans-serif" font-size="13" fill="#17212B">机器人暴露与中国企业 GVC</text>
<text x="1807" y="190" font-family="Segoe UI, Microsoft YaHei, sans-serif" font-size="13" fill="#17212B">参与</text>
<rect x="1795" y="245" width="220" height="96" rx="12" fill="#FCE9E7" stroke="#B84A3A" stroke-width="1.8"/>
<text x="1807" y="264" font-family="Segoe UI, Microsoft YaHei, sans-serif" font-size="10" font-weight="700" fill="#B84A3A">DEBATE · D-DEVELOP</text>
<text x="1807" y="288" font-family="Segoe UI, Microsoft YaHei, sans-serif" font-size="13" fill="#17212B">[模型/理论]</text>
<text x="1807" y="304" font-family="Segoe UI, Microsoft YaHei, sans-serif" font-size="13" fill="#17212B">企业升级可与国家间数字鸿沟并存</text>
<rect x="1795" y="375" width="220" height="96" rx="12" fill="#FFF4D6" stroke="#B98216" stroke-width="1.8"/>
<text x="1807" y="394" font-family="Segoe UI, Microsoft YaHei, sans-serif" font-size="10" font-weight="700" fill="#B98216">GAP · G-TRADE</text>
<text x="1807" y="418" font-family="Segoe UI, Microsoft YaHei, sans-serif" font-size="13" fill="#17212B">待补证：跨境 API</text>
<text x="1807" y="434" font-family="Segoe UI, Microsoft YaHei, sans-serif" font-size="13" fill="#17212B">服务、token 投入与出口结果</text>
<rect x="1795" y="505" width="220" height="96" rx="12" fill="#FFF4D6" stroke="#B98216" stroke-width="1.8"/>
<text x="1807" y="524" font-family="Segoe UI, Microsoft YaHei, sans-serif" font-size="10" font-weight="700" fill="#B98216">GAP · G-GOV</text>
<text x="1807" y="548" font-family="Segoe UI, Microsoft YaHei, sans-serif" font-size="13" fill="#17212B">待补证：中文组织与公共治理的合规</text>
<text x="1807" y="564" font-family="Segoe UI, Microsoft YaHei, sans-serif" font-size="13" fill="#17212B">采用证据</text>
<rect x="55" y="665" width="18" height="18" rx="4" fill="#E8F3EC" stroke="#347A52"/>
<text x="81" y="679" font-family="Segoe UI, Microsoft YaHei, sans-serif" font-size="12" fill="#344054">已建立</text>
<rect x="205" y="665" width="18" height="18" rx="4" fill="#FCE9E7" stroke="#B84A3A"/>
<text x="231" y="679" font-family="Segoe UI, Microsoft YaHei, sans-serif" font-size="12" fill="#344054">争议</text>
<rect x="355" y="665" width="18" height="18" rx="4" fill="#FFF4D6" stroke="#B98216"/>
<text x="381" y="679" font-family="Segoe UI, Microsoft YaHei, sans-serif" font-size="12" fill="#344054">缺口</text>
<rect x="505" y="665" width="18" height="18" rx="4" fill="#EAE8FA" stroke="#6557B2"/>
<text x="531" y="679" font-family="Segoe UI, Microsoft YaHei, sans-serif" font-size="12" fill="#344054">拟议创新</text>
<text x="2015" y="679" text-anchor="end" font-family="Segoe UI, Microsoft YaHei, sans-serif" font-size="11" fill="#667085">实线：直接/综合证据　虚线：综述推断</text>
</svg>